<svg width="30" height="17" viewBox="0 0 30 17" fill="none" xmlns="http://www.w3.org/2000/svg">
<g clip-path="url(#clip0_201_439)">
<path d="M30 2.35225C30 3.65272 28.9592 4.70679 27.6752 4.70679C27.6031 4.70679 27.531 4.70679 27.4589 4.69766C27.3981 4.69082 27.3372 4.68397 27.2787 4.67257C27.2561 4.668 27.2336 4.66344 27.2066 4.65888C25.4697 4.34174 14.9651 2.61235 2.80694 4.6566C2.80243 4.65431 2.79793 4.6566 2.79342 4.65888C2.72809 4.668 2.66276 4.67941 2.59743 4.69082C2.58617 4.69082 2.5749 4.69082 2.56364 4.69538C2.54111 4.69766 2.52084 4.69766 2.50056 4.69994C2.44199 4.70451 2.38342 4.70679 2.32485 4.70679C1.04077 4.70679 0 3.65272 0 2.35225C0 1.05178 1.04077 0 2.32485 0C2.38342 0 2.44199 0.00228153 2.50056 0.00684458C2.51183 0.00684458 2.52309 0.00912611 2.53661 0.00912611H2.53886C2.61771 0.0296598 2.82496 0.082135 3.14485 0.152862C3.14485 0.155144 3.14936 0.155144 3.15161 0.155144C5.79635 0.748341 16.105 2.7173 26.8754 0.143736C26.8777 0.143736 26.8822 0.143736 26.8867 0.139173C27.0511 0.102669 27.2156 0.0616012 27.38 0.0182522C27.4071 0.0159707 27.4341 0.0114076 27.4589 0.00912611C27.531 0.00228153 27.6031 0 27.6752 0C28.9592 0 30 1.05407 30 2.35225Z" fill="#bea7a7"/>
<path d="M30 14.1455C30 15.4459 28.9592 16.5 27.6752 16.5C27.6031 16.5 27.531 16.5 27.4589 16.4909C27.3981 16.484 27.3372 16.4772 27.2787 16.4658C27.2561 16.4612 27.2336 16.4567 27.2066 16.4521C25.4697 16.135 14.9651 14.4056 2.80694 16.4498C2.80243 16.4475 2.79793 16.4498 2.79342 16.4521C2.72809 16.4612 2.66276 16.4726 2.59743 16.484C2.58617 16.484 2.5749 16.484 2.56364 16.4886C2.54111 16.4909 2.52084 16.4909 2.50056 16.4932C2.44199 16.4977 2.38342 16.5 2.32485 16.5C1.04077 16.5 0 15.4459 0 14.1455C0 12.845 1.04077 11.7932 2.32485 11.7932C2.38342 11.7932 2.44199 11.7955 2.50056 11.8001C2.51183 11.8001 2.52309 11.8023 2.53661 11.8023H2.53886C2.61771 11.8229 2.82496 11.8753 3.14485 11.9461C3.14485 11.9484 3.14936 11.9484 3.15161 11.9484C5.79635 12.5416 16.105 14.5105 26.8754 11.9369C26.8777 11.9369 26.8822 11.9369 26.8867 11.9324C27.0511 11.8959 27.2156 11.8548 27.38 11.8115C27.4071 11.8092 27.4341 11.8046 27.4589 11.8023C27.531 11.7955 27.6031 11.7932 27.6752 11.7932C28.9592 11.7932 30 12.8473 30 14.1455Z" fill="#bea7a7"/>
</g>
<defs>
<clipPath id="clip0_201_439">
<rect width="30" height="16.5" fill="white"/>
</clipPath>
</defs>
</svg>
