<?xml version="1.0" encoding="utf-8"?>
<!-- Generator: Adobe Illustrator 26.0.2, SVG Export Plug-In . SVG Version: 6.00 Build 0)  -->
<svg version="1.1" id="Capa_1" xmlns="http://www.w3.org/2000/svg" xmlns:xlink="http://www.w3.org/1999/xlink" x="0px" y="0px"
	 viewBox="0 0 148.9 54.3" style="enable-background:new 0 0 148.9 54.3;" xml:space="preserve">
<style type="text/css">
	.st0{fill-rule:evenodd;clip-rule:evenodd;fill:#49494A;}
	.st1{fill-rule:evenodd;clip-rule:evenodd;fill:#D80000;}
</style>
<g id="Group_00000111154759063418769060000016065093638670479287_">
	<path id="Fill-1_00000028316577984469402420000005983195756928721280_" class="st0" d="M81.4,49.1c-1,0-1.9-0.9-1.9-1.9
		s0.8-1.9,1.9-1.9c1,0,1.9,0.9,1.9,1.9C83.3,48.2,82.5,49.1,81.4,49.1L81.4,49.1z M83.3,43.8v0.7c-0.3-0.4-1.1-0.8-2.1-0.8
		c-1.6,0-3.3,1.4-3.3,3.3c0,0.1,0,0.1,0,0.1c0,0.1,0,0.1,0,0.1c0.1,1.9,1.7,3.3,3.3,3.3c1,0,1.8-0.4,2.1-0.8v0.7h1.8v-6.6L83.3,43.8
		L83.3,43.8z M66.9,49.1c-1,0-1.9-0.9-1.9-1.9s0.8-1.9,1.9-1.9c1,0,1.9,0.9,1.9,1.9C68.8,48.2,68,49.1,66.9,49.1L66.9,49.1z
		 M68.8,43.8v0.7c-0.3-0.4-1.1-0.8-2.1-0.8c-1.6,0-3.3,1.4-3.3,3.3c0,0.1,0,0.1,0,0.1c0,0.1,0,0.1,0,0.1c0.1,1.9,1.7,3.3,3.3,3.3
		c1,0,1.8-0.4,2.1-0.8v0.7h1.8v-6.6L68.8,43.8L68.8,43.8z M72,50.4h1.7V41H72V50.4z M93.7,42.7h1.7V41h-1.7V42.7z M93.7,50.4h1.7
		v-6.6h-1.7V50.4z M75.1,42.7h1.7V41h-1.7V42.7z M75.1,50.4h1.7v-6.6h-1.7V50.4z M97.8,48.4c0.2,0.5,0.6,0.8,1.3,0.8
		c0.4,0,0.8-0.2,0.8-0.6c0-0.4-0.2-0.6-1.2-1c-1.2-0.4-1.9-1.1-1.9-2.1c0-1.1,0.8-1.9,2.2-1.9s2.2,0.6,2.4,1.6l-1.3,0.5
		c-0.1-0.5-0.5-0.8-1-0.8c-0.4,0-0.7,0.2-0.7,0.5c0,0.4,0.3,0.5,1.1,0.8c1.2,0.5,2,1.1,2,2.2c0,1-0.7,2-2.4,2
		c-1.3,0-2.3-0.6-2.5-1.6L97.8,48.4z M88.3,46.9l-2.2-3.2h2l1.4,1.9l1.3-1.9h1.9L90.5,47l2.4,3.3h-2l-1.5-2.1L88,50.4h-1.9
		L88.3,46.9z M61.2,43.8l-2.7,7c-0.5,1.5-1.6,2.3-3,2.2v-1c0.9,0.1,1.4-0.4,1.8-1.3l0.1-0.2l-2.9-6.6h1.3l2.2,5.2l1.9-5.2L61.2,43.8
		L61.2,43.8z M53.4,47.1c0-1.3-1-2.4-2.4-2.4c-1.3,0-2.4,1-2.4,2.4c0,1.3,1,2.4,2.4,2.4C52.4,49.5,53.4,48.5,53.4,47.1L53.4,47.1z
		 M54.5,47.1c0,1.9-1.5,3.5-3.3,3.5c-1.1,0-2-0.5-2.5-1.3v1.1h-1.1v-9h1.2V45c0.5-0.8,1.4-1.3,2.5-1.3
		C53.1,43.7,54.5,45.2,54.5,47.1L54.5,47.1z"/>
	<g id="Group-2_00000076597332993496122900000006236689621018000026_">
		<polygon id="Fill-3_00000003105460021972138540000008298996860218517172_" class="st1" points="62.6,1.4 59.3,7.1 65.7,7.1 
			68.9,1.4 		"/>
		<g id="Group-8_00000141433225863854179150000003160348903294303663_" transform="translate(0.000000, -0.000000)">
			<path id="Fill-4_00000036942896752506427480000002474719277222085007_" class="st1" d="M125,10.7c2.1-1.5,3.1-0.4,2.1,2.1
				c-0.4,1-2.7,5.2-6.5,7.3C120.3,14.6,124.1,11.2,125,10.7 M93.2,24.8c-2.5,1.9-5.6,0.7-6.2-0.7c-1.3-2.4,0.7-5.3,3.4-5.8
				c1.3-0.2,2,0.4,2.1,1.3c-1.9,1-1.4,3.2,1.6,4.4C93.8,24.3,93.5,24.6,93.2,24.8 M110.6,9.9c2.1-1.5,2.8-0.7,1.9,1.9
				c-0.4,1-2.4,3.9-6.4,5.6C107.1,12.6,109.8,10.4,110.6,9.9 M139.6,25.3c-2.9-0.8-2.8-1.8-8.7-0.5c-5.9,1.3-9.6,0.6-9.7-2.7
				c1.9-2.1,5.9-5.6,9-12.7c3.1-7.1-0.7-4.9-4.4-2c-3.6,2.9-9.3,11.8-10.4,16.9c-3.4,1-10,3.1-10-3.3c3.9-2.9,9.6-9.1,11.4-13.9
				c1.6-4.2-2.2-2.7-4.2-1.2c-5.7,4.7-7.6,7.3-10.1,13.6c-1.4,0.7-2.8,1.1-4,0.4c0-0.4,0.1-1,0.1-1.5c0.1-4.2-4.1-6.5-9-4.3
				c-4,1.8-7.2,5.9-7.6,10.4c-1.5,0.7-3.6,1.4-7.6,1.4c-8.2,0-5.7-10.3,1.6-7l3.5-4.2c-2.5-2.2-5.5-2.2-8.2-1
				c-3.6,1.6-7.2,5.9-7.9,10.2c-5.1,2.5-7.9,0.1-6.1-2.8c1.2-1.9,3.8-6.2,5.1-8.8H56c-2.9,5-10.7,10.4-16.7,11.3l-0.7,1.5
				c2.4,0.4,4.8,0.7,9.7-1c-5.1,10.1,4.4,7.6,6.4,6.8c1.6-0.7,4.7-2.2,8.5-4.2c0.1,0.5,0.1,1,0.4,1.5c2,5.8,8.7,2.9,10.7,2
				c1.3-0.6,4.8-2.4,7.5-3.9c0.1,0.7,0.1,1.3,0.3,2c1,3.6,6.3,5.4,11,1.6c2.7-2.2,4.2-4.4,4.9-7.2c0.9,0.1,1.8,0.2,3.3,0.1
				c-0.3,1.6-0.6,3.4-0.5,5.3c0.7,8.7,12.3,1,14.1-0.6c2.1,5.9,6.2,5.2,10.1,3c2.7-1.6,6-1.6,8.2-0.6c3.4,1.6,5.9,1.8,8.9,1.8
				l3.5-5.9C143.5,26,142.1,26,139.6,25.3"/>
			<path id="Fill-6_00000040566528764993758690000012801561418824967597_" class="st1" d="M26,10.9c1.6-5.7,4.2-2.7,3.8-0.1
				c-0.3,2.1-1,3.2-3,5.5C25.9,14.5,25.5,12.5,26,10.9L26,10.9z M58.8,1.2c-13.2,0-21,7.4-28.5,18.7c-1-0.5-1.9-1.3-2.5-2.3l0,0
				c2.6-3.6,3.8-7.1,4.5-11.4c1.1-6.1-1.7-6.1-5.6-1.5c-2.4,2.8-4.2,8.5-3.5,14.6c-4.2,2.4-9.8,3-14.1,1.5l-5.9,9.6
				c7,1.1,15.1-1.2,20.8-7.4c0.8,2.7,2.3,5.3,4.5,7.6c2.4-3.5,7.9-18.8,23.8-18.8L58.8,1.2z"/>
		</g>
	</g>
</g>
</svg>
